# xmcd
#
# Track frame offsets: 
#        182
#        14680
#        27737
#        43695
#        56842
#        71300
#        85907
#        102297
#        117295
#        132625
#        147260
#        158590
#        173405
#        192100
#        206810
#        220200
#        237415
#        252900
#        264752
#        281527
#        298810
#        317417
#        331045
#        344120
#
# Disc length: 4769 seconds
#
# Revision: 7
# Processed by: cddbd v1.5.2PL0 Copyright (c) Steve Scherf et al.
# Submitted via: ExactAudioCopy v1.0b1
#
DISCID=6e129f18
DTITLE=Various Artist - Have A Nice Decade [Disc6]
DYEAR=1998
DGENRE=Pop
TTITLE0=K.C. and The Sunshine Band - Get Down Tonight
TTITLE1=The Ohio Players - Love Rollercoaster
TTITLE2=The Four Seasons - December, 1963 (Oh, What A Night)
TTITLE3=The Bay City Rollers - Saturday Night
TTITLE4=Mike Post - The Rockford Files
TTITLE5=Glen Campbell - Rhinestone Cowboy
TTITLE6=Silver Convention - Fly, Robin, Fly
TTITLE7=Electric Light Orchestra - Evil Woman
TTITLE8=Diana Ross - Theme From Mahogany (Do You Know Where You're Goi
TTITLE8=ng To)
TTITLE9=Pratt and McClain - Happy Days
TTITLE10=Cyndi Grecco - Making Our Dreams Come True
TTITLE11=The Bellamy Brothers - Let Your Love Flow
TTITLE12=Parliament - Tear The Roof Off The Sucker (Give Up The Funk)
TTITLE13=Maxine Nightngale - Right Back Where We Started From
TTITLE14=Elvin Bishop - Fooled Around And Fell In Love
TTITLE15=The Starland Vocal Band - Afternoon Delight
TTITLE16=Gary Wright - Dream Weaver
TTITLE17=England Dan and John Ford Coley - I'd Really Love To See You To
TTITLE17=night
TTITLE18=Rick Dees and His Cast Of Idiots - Disco Duck (Part 1)
TTITLE19=Vickie Sue Robinson - Turn The Beat Around
TTITLE20=Rose Royce - Car Wash
TTITLE21=The Andrea True Connection - More, More, More (Part 1)
TTITLE22=Firefall - You Are The Woman
TTITLE23=Steve Miller - Fly Like An Eagle
EXTD=YEAR: 1998
EXTT0=
EXTT1=
EXTT2=
EXTT3=
EXTT4=
EXTT5=
EXTT6=
EXTT7=
EXTT8=
EXTT9=
EXTT10=
EXTT11=
EXTT12=
EXTT13=
EXTT14=
EXTT15=
EXTT16=
EXTT17=
EXTT18=
EXTT19=
EXTT20=
EXTT21=
EXTT22=
EXTT23=
PLAYORDER=
